# xmcd CD database file
#
# Track frame offsets:
#	150
#	17345
#	34470
#	55142
#	82835
#	117615
#
# Disc length: 1917 seconds
#
# Revision: 0
# Processed by: cddbd v1.5PL3 Copyright (c) Steve Scherf et al.
# Submitted via: CDex 1.51
#
DISCID=43077b06
DTITLE=cool drive makers - スーツケース
DYEAR=2002
DGENRE=Japanese Pop
TTITLE0=グロッキールーム
TTITLE1=スーツケース
TTITLE2=C.B.CLUES
TTITLE3=時計の針が左にまわったら
TTITLE4=きれいな空
TTITLE5=データトラック 06
EXTD=YEAR: 2002
EXTT0=
EXTT1=
EXTT2=
EXTT3=
EXTT4=
EXTT5=
PLAYORDER=
